<?xml version="1.0" standalone="no"?>
<!DOCTYPE svg PUBLIC "-//W3C//DTD SVG 20010904//EN"
 "http://www.w3.org/TR/2001/REC-SVG-20010904/DTD/svg10.dtd">
<svg version="1.0" xmlns="http://www.w3.org/2000/svg"
 width="512.000000pt" height="512.000000pt" viewBox="0 0 512.000000 512.000000"
 preserveAspectRatio="xMidYMid meet">

<g transform="translate(0.000000,512.000000) scale(0.100000,-0.100000)"
fill="#000000" stroke="none">
<path d="M0 2560 l0 -2560 2560 0 2560 0 0 2560 0 2560 -2560 0 -2560 0 0
-2560z m1887 2475 c62 -16 129 -39 178 -60 17 -8 55 -23 85 -35 30 -11 64 -25
75 -29 11 -5 54 -18 95 -30 177 -52 182 -53 292 -106 52 -24 87 -49 108 -75
26 -33 30 -46 30 -103 0 -68 -10 -87 -35 -67 -12 10 -16 8 -24 -11 -13 -35
-101 -126 -136 -141 l-30 -12 44 -4 c24 -2 56 2 72 8 24 10 32 9 57 -9 48 -34
81 -86 100 -156 13 -50 14 -69 5 -83 -6 -9 -17 -16 -23 -14 -9 2 -11 -6 -7
-27 6 -29 -12 -58 -21 -33 -5 17 -32 15 -32 -2 0 -8 6 -16 13 -19 7 -2 8 -8 3
-13 -5 -5 -11 -4 -13 4 -5 14 -33 17 -33 3 0 -5 -31 -30 -69 -54 -65 -44 -161
-140 -161 -162 0 -6 -32 -41 -71 -78 -49 -47 -77 -66 -89 -62 -9 3 -23 -1 -30
-10 -7 -8 -20 -15 -29 -15 -10 0 -46 -12 -82 -26 -98 -39 -444 -125 -531 -131
-49 -4 -82 -11 -90 -20 -12 -15 -10 -17 167 -201 l70 -72 9 -213 c7 -149 6
-267 -2 -397 -7 -102 -19 -302 -27 -445 -8 -143 -18 -268 -21 -278 -3 -9 -12
-70 -20 -135 -8 -64 -18 -142 -23 -172 -35 -215 -43 -255 -57 -281 -19 -38
-15 -96 6 -90 8 2 32 9 52 14 31 9 40 8 56 -6 18 -16 20 -16 34 0 9 10 25 36
37 58 12 22 25 47 30 55 5 8 40 78 77 155 38 77 74 146 81 153 7 7 13 17 13
22 0 4 16 32 35 62 51 77 59 89 70 102 6 6 22 27 35 46 13 19 30 39 37 43 7 4
13 13 13 18 0 6 14 23 32 39 26 24 29 31 19 44 -11 13 -6 22 28 58 33 35 43
40 51 28 5 -8 12 -11 17 -7 4 5 1 12 -7 17 -11 7 -2 21 44 66 51 49 62 55 78
45 17 -10 18 -9 12 14 -4 17 -2 25 7 25 8 0 31 16 52 35 21 19 44 35 52 35 8
0 18 6 22 13 10 15 148 87 167 87 8 0 27 6 43 14 98 48 251 70 503 71 243 0
413 -23 528 -71 18 -8 39 -14 46 -14 34 0 285 -123 361 -176 171 -121 255
-193 426 -369 92 -95 139 -148 139 -159 0 -4 14 -25 30 -46 17 -21 30 -45 30
-53 0 -9 4 -19 10 -22 13 -8 60 -103 60 -123 0 -9 7 -26 15 -36 8 -11 15 -39
15 -62 0 -24 5 -46 10 -49 6 -3 10 -50 10 -106 0 -64 -4 -98 -10 -94 -5 3 -10
19 -10 36 0 34 -15 39 -24 7 -9 -35 -7 -98 3 -98 13 0 22 -30 16 -51 -9 -28
-23 -23 -27 9 -5 41 -21 33 -31 -15 -4 -24 -12 -43 -17 -43 -4 0 -13 -12 -19
-27 -7 -16 -19 -40 -27 -56 -23 -41 -172 -187 -192 -187 -5 0 -20 -9 -33 -20
-13 -11 -29 -23 -34 -28 -6 -5 -23 -12 -38 -16 -15 -3 -27 -11 -27 -16 0 -6
-8 -10 -18 -10 -11 0 -29 -9 -42 -20 -13 -11 -31 -20 -40 -20 -10 0 -23 -7
-30 -15 -7 -8 -20 -15 -29 -15 -9 0 -25 -7 -35 -15 -11 -8 -30 -15 -42 -15
-12 0 -27 -7 -34 -15 -7 -8 -22 -15 -34 -15 -11 0 -30 -7 -40 -15 -11 -8 -32
-15 -47 -15 -15 0 -31 -4 -34 -10 -3 -5 -18 -10 -33 -10 -15 0 -40 -9 -57 -20
-16 -11 -44 -20 -61 -20 -17 0 -47 -6 -66 -14 -48 -20 -234 -57 -253 -50 -8 4
-21 2 -28 -4 -6 -5 -39 -15 -72 -22 -33 -6 -79 -16 -103 -21 -24 -5 -47 -7
-52 -4 -4 3 -21 0 -37 -6 -15 -6 -63 -13 -106 -15 -43 -2 -94 -8 -115 -13 -71
-19 -345 -39 -642 -45 -145 -4 -407 11 -515 28 -80 13 -111 17 -215 31 -14 2
-74 9 -135 15 -60 7 -123 16 -138 21 -17 5 -37 4 -52 -3 -14 -6 -35 -7 -52 -3
-15 5 -32 7 -38 6 -5 -2 -55 -3 -109 -2 -54 0 -117 -4 -140 -9 -23 -4 -90 -11
-149 -15 -60 -3 -132 -10 -160 -16 -57 -10 -191 4 -242 27 -16 7 -44 28 -62
47 -31 33 -32 37 -39 153 -4 66 -11 125 -17 132 -13 16 -4 179 11 194 9 9 12
4 13 -22 0 -19 4 -44 8 -55 13 -34 20 45 8 95 -11 49 -15 186 -7 316 6 126 18
131 20 9 2 -60 6 -123 10 -140 l7 -30 7 35 c7 36 4 205 -9 390 -7 115 -7 315
1 343 9 30 24 8 25 -36 0 -29 3 -36 8 -23 4 10 4 41 0 70 -13 86 -10 181 6
219 8 20 15 56 15 79 0 24 7 52 15 62 8 11 15 36 15 56 0 20 7 45 15 56 8 10
15 33 15 50 0 16 7 39 15 50 8 10 15 30 15 44 0 14 6 34 14 45 7 11 17 36 21
55 4 19 14 44 21 55 8 11 14 29 14 41 0 12 7 27 15 34 8 7 15 25 15 40 0 15 7
33 15 40 8 7 15 22 15 34 0 11 7 30 15 40 8 11 15 30 15 42 0 12 7 27 15 34 8
7 15 21 15 31 0 11 9 36 20 56 11 21 20 47 20 58 0 11 7 29 15 39 8 11 15 36
15 57 0 20 7 42 15 49 8 7 15 29 15 49 0 20 6 45 14 56 7 11 16 42 19 68 4 27
10 54 14 60 5 7 13 39 18 71 10 57 35 91 35 47 0 -12 5 -21 10 -21 6 0 10 11
10 25 0 14 -4 25 -10 25 -16 0 -12 104 5 126 14 18 14 18 15 -8 0 -15 5 -30
10 -33 6 -4 10 6 10 24 0 16 -4 33 -10 36 -13 8 -13 87 1 122 l11 28 13 -40
13 -40 1 42 c1 23 -4 45 -9 48 -14 8 -13 91 2 140 l11 40 11 -60 c8 -43 13
-55 19 -42 11 30 8 112 -5 126 -14 13 -15 194 -2 234 7 21 8 20 15 -8 4 -16 7
-52 8 -80 1 -35 4 -46 12 -38 11 11 8 100 -6 191 -6 32 -2 53 14 86 11 25 25
47 31 51 5 3 10 13 10 21 0 8 15 35 33 58 17 24 39 54 47 66 8 12 23 32 34 43
34 40 133 172 143 192 23 42 115 149 156 180 78 60 156 75 254 50z m823 -565
c0 -5 -4 -10 -10 -10 -5 0 -10 5 -10 10 0 6 5 10 10 10 6 0 10 -4 10 -10z
m-30 -34 c0 -3 -4 -8 -10 -11 -5 -3 -10 -1 -10 4 0 6 5 11 10 11 6 0 10 -2 10
-4z m-30 -510 c0 -3 -4 -8 -10 -11 -5 -3 -10 -1 -10 4 0 6 5 11 10 11 6 0 10
-2 10 -4z m-138 -138 c-7 -7 -12 -8 -12 -2 0 14 12 26 19 19 2 -3 -1 -11 -7
-17z m-92 -118 c0 -5 -5 -10 -11 -10 -5 0 -7 5 -4 10 3 6 8 10 11 10 2 0 4 -4
4 -10z m-120 -94 c0 -3 -4 -8 -10 -11 -5 -3 -10 -1 -10 4 0 6 5 11 10 11 6 0
10 -2 10 -4z m-183 -102 c-3 -3 -12 -4 -19 -1 -8 3 -5 6 6 6 11 1 17 -2 13 -5z
m-85 -36 c-9 -9 -15 -9 -24 0 -9 9 -7 12 12 12 19 0 21 -3 12 -12z m-97 -28
c-3 -5 -10 -10 -16 -10 -5 0 -9 5 -9 10 0 6 7 10 16 10 8 0 12 -4 9 -10z m-55
-65 c0 -8 -4 -15 -10 -15 -5 0 -10 7 -10 15 0 8 5 15 10 15 6 0 10 -7 10 -15z
m-38 -410 l-7 -170 -5 115 c-3 63 -3 167 -1 230 4 110 5 113 13 55 4 -33 4
-136 0 -230z m-30 -942 c0 -164 -1 -184 -11 -160 -3 10 -6 71 -4 135 1 64 3
128 3 141 0 13 3 22 6 18 3 -3 6 -63 6 -134z m428 -21 c0 -13 -12 -22 -22 -16
-10 6 -1 24 13 24 5 0 9 -4 9 -8z m-30 -37 c0 -8 -7 -15 -15 -15 -8 0 -15 -7
-15 -15 0 -8 -7 -15 -15 -15 -21 0 -19 8 8 36 26 27 37 30 37 9z m-70 -65 c0
-5 -5 -10 -11 -10 -5 0 -7 5 -4 10 3 6 8 10 11 10 2 0 4 -4 4 -10z m-60 -95
c0 -8 -7 -15 -15 -15 -16 0 -20 12 -8 23 11 12 23 8 23 -8z m-70 -95 c0 -5 -4
-10 -10 -10 -5 0 -10 5 -10 10 0 6 5 10 10 10 6 0 10 -4 10 -10z m-30 -40 c0
-5 -4 -10 -10 -10 -5 0 -10 5 -10 10 0 6 5 10 10 10 6 0 10 -4 10 -10z m-30
-60 c0 -5 -4 -10 -10 -10 -5 0 -10 5 -10 10 0 6 5 10 10 10 6 0 10 -4 10 -10z
m-170 -66 c0 -34 -4 -53 -10 -49 -18 11 -12 105 7 105 2 0 3 -25 3 -56z m140
8 c0 -13 -12 -22 -22 -16 -10 6 -1 24 13 24 5 0 9 -4 9 -8z m-39 -75 c-13 -13
-26 -3 -16 12 3 6 11 8 17 5 6 -4 6 -10 -1 -17z m-35 -64 c-10 -10 -19 5 -10
18 6 11 8 11 12 0 2 -7 1 -15 -2 -18z m-30 -70 c-10 -10 -19 5 -10 18 6 11 8
11 12 0 2 -7 1 -15 -2 -18z m-26 -17 c0 -11 -19 -15 -25 -6 -3 5 1 10 9 10 9
0 16 -2 16 -4z m3160 -381 c0 -8 -4 -15 -10 -15 -5 0 -10 7 -10 15 0 8 5 15
10 15 6 0 10 -7 10 -15z m-30 -65 c0 -5 -4 -10 -10 -10 -5 0 -10 5 -10 10 0 6
5 10 10 10 6 0 10 -4 10 -10z m-4505 -479 c-4 -17 -9 -21 -17 -13 -13 13 -7
180 7 202 11 17 20 -149 10 -189z m4185 195 c0 -3 -4 -8 -10 -11 -5 -3 -10 -1
-10 4 0 6 5 11 10 11 6 0 10 -2 10 -4z m-60 -36 c0 -5 -4 -10 -10 -10 -5 0
-10 5 -10 10 0 6 5 10 10 10 6 0 10 -4 10 -10z m-65 -30 c3 -5 1 -10 -4 -10
-6 0 -11 5 -11 10 0 6 2 10 4 10 3 0 8 -4 11 -10z m-58 -36 c-3 -3 -12 -4 -19
-1 -8 3 -5 6 6 6 11 1 17 -2 13 -5z m-70 -30 c-3 -3 -12 -4 -19 -1 -8 3 -5 6
6 6 11 1 17 -2 13 -5z m-67 -28 c0 -11 -19 -15 -25 -6 -3 5 1 10 9 10 9 0 16
-2 16 -4z m-80 -36 c0 -5 -7 -10 -15 -10 -8 0 -15 5 -15 10 0 6 7 10 15 10 8
0 15 -4 15 -10z m-80 -30 c0 -5 -9 -10 -21 -10 -11 0 -17 5 -14 10 3 6 13 10
21 10 8 0 14 -4 14 -10z m-100 -30 c0 -5 -10 -10 -22 -9 -22 0 -22 1 -3 9 11
5 21 9 23 9 1 1 2 -3 2 -9z m-3583 -22 c-3 -8 -6 -5 -6 6 -1 11 2 17 5 13 3
-3 4 -12 1 -19z m3486 -15 c-7 -2 -21 -2 -30 0 -10 3 -4 5 12 5 17 0 24 -2 18
-5z m-3443 -27 c0 -3 -4 -8 -10 -11 -5 -3 -10 -1 -10 4 0 6 5 11 10 11 6 0 10
-2 10 -4z m3323 -3 c-7 -2 -21 -2 -30 0 -10 3 -4 5 12 5 17 0 24 -2 18 -5z
m-118 -33 c-3 -5 -15 -10 -26 -10 -10 0 -19 5 -19 10 0 6 12 10 26 10 14 0 23
-4 19 -10z m-3105 -30 c0 -5 -4 -10 -10 -10 -5 0 -10 5 -10 10 0 6 5 10 10 10
6 0 10 -4 10 -10z m2960 0 c0 -5 -14 -10 -31 -10 -17 0 -28 4 -24 10 3 6 17
10 31 10 13 0 24 -4 24 -10z m-2604 -33 c4 -4 -59 -7 -140 -7 -81 0 -145 3
-142 8 6 10 272 9 282 -1z m764 3 c11 -7 1 -10 -35 -9 -37 0 -45 3 -30 9 27
12 47 12 65 0z m1670 0 c0 -5 -17 -9 -37 -9 l-38 2 35 7 c19 4 36 8 38 9 1 0
2 -3 2 -9z m-2372 -7 c-10 -2 -26 -2 -35 0 -10 3 -2 5 17 5 19 0 27 -2 18 -5z
m960 -23 c25 -1 32 -3 22 -9 -21 -11 -117 -2 -99 10 8 5 20 7 27 4 8 -3 30 -5
50 -5z m1179 -7 c-20 -2 -52 -2 -70 0 -17 2 0 4 38 4 39 0 53 -2 32 -4z m-407
-33 c-19 -12 -437 -12 -465 0 -12 5 81 9 230 9 165 1 245 -3 235 -9z m87 4
c-3 -3 -12 -4 -19 -1 -8 3 -5 6 6 6 11 1 17 -2 13 -5z"/>
<path d="M1860 4616 c0 -8 5 -18 11 -22 28 -17 48 -91 50 -182 2 -104 -7 -123
-67 -142 -78 -26 -17 -60 105 -60 112 0 128 21 39 49 -45 15 -51 29 -42 111 9
84 26 110 71 110 32 0 113 -35 113 -49 0 -3 11 -19 25 -36 20 -25 26 -28 34
-15 6 8 8 25 4 38 -4 17 4 31 38 62 24 22 54 40 66 40 12 0 25 5 28 10 10 16
-23 12 -58 -7 -46 -24 -165 -21 -245 6 -39 13 -81 36 -109 61 -49 43 -63 49
-63 26z"/>
<path d="M2378 4553 c7 -3 16 -2 19 1 4 3 -2 6 -13 5 -11 0 -14 -3 -6 -6z"/>
<path d="M2440 2160 c0 -5 5 -10 10 -10 6 0 10 5 10 10 0 6 -4 10 -10 10 -5 0
-10 -4 -10 -10z"/>
<path d="M2410 2130 c0 -5 5 -10 10 -10 6 0 10 5 10 10 0 6 -4 10 -10 10 -5 0
-10 -4 -10 -10z"/>
<path d="M2375 2100 c-3 -5 -1 -10 4 -10 6 0 11 5 11 10 0 6 -2 10 -4 10 -3 0
-8 -4 -11 -10z"/>
<path d="M2310 2036 c0 -9 5 -16 10 -16 6 0 10 4 10 9 0 6 -4 13 -10 16 -5 3
-10 -1 -10 -9z"/>
<path d="M2270 1995 c0 -9 6 -12 15 -9 8 4 15 10 15 15 0 5 -7 9 -15 9 -8 0
-15 -7 -15 -15z"/>
<path d="M4972 1270 c0 -14 2 -19 5 -12 2 6 2 18 0 25 -3 6 -5 1 -5 -13z"/>
</g>
</svg>
